<svg width="108" height="33" viewBox="0 0 108 33" fill="none" xmlns="http://www.w3.org/2000/svg">
<g clip-path="url(#clip0)">
<path d="M44.1523 2.57673C43.3732 1.45074 42.2477 0.606255 40.9491 0.259798C38.6982 -0.389808 36.4906 0.368066 35.3002 2.27358C33.9367 4.41728 33.6986 8.87791 33.6337 11.1948H28.093V10.0689C28.093 9.65744 28.093 7.27555 26.4914 5.67318C25.5391 4.72043 24.2405 4.17909 22.7471 4.17909C21.2104 4.17909 19.8902 4.72043 18.9379 5.67318C17.4012 7.34051 17.4012 9.65744 17.4012 10.0689V11.1948H11.9038C11.8389 8.87791 11.6008 4.28736 10.2373 2.20862C8.93868 0.303105 6.66613 -0.476422 4.45852 0.238145C2.31583 0.909404 0 3.05311 0 7.10232C0 7.81688 0.584369 8.40153 1.2986 8.40153C2.01283 8.40153 2.59719 7.81688 2.59719 7.10232C2.59719 5.37003 3.24649 3.29129 5.1511 2.74996C6.27655 2.4035 7.35872 2.74996 7.94309 3.70271C8.83046 5.00192 9.13347 8.57476 9.1984 11.2598H8.00802C7.66172 11.2598 5.56233 11.2598 4.02565 12.7539C3.00842 13.7066 2.53226 15.0059 2.53226 16.6299C2.53226 18.2539 3.03006 19.6181 4.0473 20.5708C5.47575 21.935 7.31543 22 7.92144 22C7.98637 22 7.98637 22 8.02966 22H9.22004V27.8897V27.9547C9.22004 28.0629 9.28497 29.2539 9.93427 30.4448C10.8216 32.1122 12.4882 33 14.5659 33C16.6437 33 18.2453 32.1122 19.1976 30.4448C19.8469 29.2539 19.9118 28.1279 19.9118 27.9547V21.935H25.3876V27.998V28.0629C25.3876 28.1712 25.4525 29.3622 26.1018 30.5531C26.9892 32.2204 28.6557 33 30.7335 33C34.7808 33 36.0361 29.8385 36.1443 28.1279V20.6791V13.9015H37.3347C37.681 13.9015 41.317 13.9015 43.6329 11.6929C44.8233 10.5669 45.4076 9.00783 45.4076 7.16728C45.4509 5.39169 45.0397 3.76767 44.1523 2.57673ZM20.8208 7.47043C21.2321 6.99405 21.8814 6.82082 22.7255 6.82082C23.5479 6.82082 24.1539 7.05901 24.6301 7.47043C25.4092 8.24996 25.5174 9.54917 25.5174 10.0255V11.2165H20.0417V10.0255C20.0417 9.48421 20.0417 8.24996 20.8208 7.47043ZM17.3796 13.8366V19.3149H11.9038V13.8366H17.3796ZM8.02966 19.3149C7.96473 19.3149 6.66613 19.3149 5.88697 18.6003C5.41082 18.124 5.17275 17.4744 5.17275 16.5866C5.17275 15.6988 5.41082 15.0492 5.82204 14.6161C6.6012 13.8366 7.83487 13.8366 7.8998 13.8366H9.15511V19.3149H8.02966ZM17.3796 27.7598C17.3796 27.8681 17.3146 28.4744 16.9683 29.059C16.4922 29.8818 15.713 30.4232 14.6525 30.4232C12.2068 30.4232 11.9255 28.2145 11.9255 27.8031V21.9133H17.4012V27.7598H17.3796ZM19.9984 19.3149V13.8366H25.4742V19.3149H19.9984ZM33.2008 29.2539C32.7247 30.0767 31.9455 30.4448 30.82 30.4448C28.3744 30.4448 28.093 28.4311 28.093 27.998V21.935H33.6337V27.933C33.612 28.0629 33.5038 28.6476 33.2008 29.2539ZM33.612 19.3149H28.0713V13.8366H33.612V19.3149ZM41.8798 9.78736C40.3431 11.2815 37.4862 11.2165 37.4862 11.2165H36.2309C36.2958 8.59641 36.5772 5.02358 37.4862 3.6594C38.2004 2.59838 39.3259 2.46846 40.2132 2.70665C41.5118 3.0531 42.897 4.43893 42.897 7.10232C42.8321 8.24996 42.5507 9.13775 41.8798 9.78736Z" fill="#5C2C99"/>
<path d="M51.2512 26.4179C50.537 25.79 50.1907 24.8156 50.1907 23.8412V17.6482C50.1907 17.1069 50.6235 16.6738 51.1646 16.6738C51.4243 16.6738 51.5975 16.7604 51.8789 16.9337C52.052 17.1069 52.1386 17.3667 52.1386 17.6482C52.1386 17.6482 52.1386 23.5813 52.1386 24.036C52.2251 24.4691 52.3983 24.8372 52.7662 25.0971C53.1125 25.3569 53.4805 25.5301 53.9133 25.5301C54.3462 25.5301 54.8007 25.3569 55.147 24.9888C55.4067 24.6423 55.5799 24.1876 55.5799 23.7545V17.8215C55.5799 17.2801 56.0127 16.8471 56.5538 16.8471C56.8135 16.8471 57.0949 16.9337 57.268 17.1069C57.4412 17.2801 57.5277 17.54 57.5277 17.8215C57.5277 17.8215 57.5277 23.6679 57.5277 24.036C57.5277 24.4691 57.7009 24.8372 58.0688 25.0971C58.4151 25.3569 58.7831 25.5301 59.2159 25.5301C59.6488 25.5301 60.1033 25.3569 60.4496 24.9888C60.7959 24.6423 60.9907 24.2742 60.9907 23.7545V17.6482C60.9907 17.1069 61.4235 16.6738 61.9646 16.6738C62.5057 16.6738 62.9386 17.1069 62.9386 17.6482V23.8628C62.9386 24.8372 62.5057 25.725 61.878 26.4396C61.1638 27.1541 60.2764 27.5006 59.3025 27.5006C58.242 27.5006 57.3546 27.0675 56.6404 26.353C55.9261 27.0675 55.0388 27.5006 53.9782 27.5006C52.8528 27.4789 51.9654 27.1325 51.2512 26.4179Z" fill="#5C2C99"/>
<path d="M65.882 25.9842C64.908 25.0098 64.2804 23.5806 64.2804 22.1732C64.2804 20.744 64.908 19.3365 65.882 18.3621C66.8559 17.3877 68.1978 16.7598 69.6912 16.7598C71.2062 16.7598 72.5265 17.3877 73.5004 18.3621C74.4744 19.3365 75.102 20.7657 75.102 22.1732C75.102 23.6023 74.4744 25.0098 73.5004 25.9842C72.5265 26.9586 71.098 27.5865 69.6912 27.5865C68.1978 27.4783 66.8559 26.9586 65.882 25.9842ZM72.0936 24.555C72.7213 23.9271 73.0675 23.0393 73.0675 22.1515C73.0675 21.2637 72.7213 20.3759 72.0936 19.748C71.466 19.12 70.5786 18.7735 69.6046 18.7735C68.6307 18.7735 67.8299 19.12 67.2022 19.748C66.5746 20.3759 66.2283 21.2637 66.2283 22.1515C66.2283 23.0393 66.5746 23.9271 67.2022 24.555C67.8299 25.183 68.7173 25.5295 69.6046 25.5295C70.6652 25.5295 71.466 25.183 72.0936 24.555Z" fill="#5C2C99"/>
<path d="M79.5388 26.8738L75.9027 18.1907C75.8162 18.1041 75.8162 17.9308 75.8162 17.7576C75.8162 17.2163 76.249 16.7832 76.7901 16.7832C77.1364 16.7832 77.5043 16.9564 77.6775 17.4112L80.5128 24.1454L83.2615 17.4112C83.4346 17.0647 83.8025 16.7832 84.1488 16.7832C84.4085 16.7832 84.5817 16.8698 84.8631 17.043C85.0362 17.2163 85.1228 17.4761 85.1228 17.7576C85.1228 17.8442 85.1228 18.0175 85.0362 18.1907L81.4001 26.8738C81.227 27.2202 80.9673 27.5017 80.5128 27.5017C80.0799 27.4801 79.712 27.2202 79.5388 26.8738Z" fill="#5C2C99"/>
<path d="M87.157 25.9842C86.1831 25.0098 85.5554 23.5806 85.5554 22.1732C85.5554 20.6574 86.1831 19.3365 87.157 18.3621C88.131 17.3877 89.5594 16.7598 90.9662 16.7598C92.3947 16.7598 93.8015 17.3877 94.7755 18.3621C95.7494 19.3365 96.3771 20.6791 96.3771 22.1732C96.3771 22.7145 96.0308 23.0609 95.4031 23.0609H87.6981C87.8713 23.7755 88.2392 24.4901 88.8452 24.9232C89.4729 25.3562 90.1654 25.6377 90.9662 25.6377C91.6805 25.6377 92.1133 25.5511 92.6544 25.2046C92.8276 25.118 93.0007 25.0314 93.2821 25.0314C93.5634 25.0314 93.7149 25.118 93.9963 25.2913C94.1694 25.4645 94.256 25.7243 94.256 26.0058C94.256 26.4389 93.9097 26.807 93.2821 27.0669C92.6544 27.3267 91.8536 27.4133 90.9662 27.4133C89.5594 27.4783 88.131 26.9586 87.157 25.9842ZM94.4292 21.372C94.256 20.5708 93.8881 19.8562 93.2821 19.4232C92.6544 18.8818 91.8536 18.622 91.0745 18.622C90.1871 18.622 89.4729 18.8818 88.8668 19.4232C88.2608 19.9645 87.8929 20.6574 87.7197 21.372H94.4292Z" fill="#5C2C99"/>
<path d="M97.9794 27.1327C97.8063 26.9594 97.7197 26.6996 97.7197 26.4181V21.8925C97.7197 20.4634 98.2608 19.1425 99.2348 18.1681C100.209 17.1937 101.442 16.6523 102.871 16.6523C104.299 16.6523 105.533 17.1937 106.507 18.1681C107.394 19.1425 108.022 20.485 108.022 21.8925V26.4181C108.022 26.9594 107.589 27.3925 107.048 27.3925C106.507 27.3925 106.074 27.046 106.074 26.4181V21.8925C106.074 21.0047 105.728 20.2035 105.187 19.5756C104.559 18.9476 103.758 18.6012 102.979 18.6012C102.092 18.6012 101.291 18.9476 100.771 19.5756C100.23 20.2035 99.8841 21.0047 99.8841 21.8925V26.4181C99.8841 26.9594 99.4512 27.3925 98.9101 27.3925C98.434 27.3925 98.1526 27.3059 97.9794 27.1327Z" fill="#5C2C99"/>
</g>
<defs>
<clipPath id="clip0">
<rect width="108" height="33" fill="white"/>
</clipPath>
</defs>
</svg>
